<svg width="33" height="33" viewBox="0 0 33 33" fill="none" xmlns="http://www.w3.org/2000/svg">
<path d="M19.7084 9.625H27.9584V24.75H19.7084V9.625Z" fill="#61B2E4"/>
<path d="M5.04163 9.625H19.7083V24.75H5.04163V9.625Z" fill="#92D3F5"/>
<path d="M7.79164 9.87793H5.19885V24.4351H7.79164" stroke="black" stroke-linecap="round" stroke-linejoin="round"/>
<path d="M7.88062 9.87793H25.1194V24.4351H7.88062V9.87793Z" stroke="black" stroke-linecap="round" stroke-linejoin="round"/>
<path d="M25.2716 9.86182L27.8657 9.88519L27.736 24.4419L25.1418 24.4185" stroke="black" stroke-linecap="round" stroke-linejoin="round"/>
<path d="M20.625 9.87793H25.0511V24.4351H20.625" stroke="black" stroke-linecap="round" stroke-linejoin="round"/>
<path d="M7.11423 27.5C7.53747 27.5 7.88057 27.1569 7.88057 26.7336C7.88057 26.3104 7.53747 25.9673 7.11423 25.9673C6.691 25.9673 6.3479 26.3104 6.3479 26.7336C6.3479 27.1569 6.691 27.5 7.11423 27.5Z" fill="black"/>
<path d="M4.43296 27.5C4.85619 27.5 5.19929 27.1569 5.19929 26.7336C5.19929 26.3104 4.85619 25.9673 4.43296 25.9673C4.00973 25.9673 3.66663 26.3104 3.66663 26.7336C3.66663 27.1569 4.00973 27.5 4.43296 27.5Z" fill="black"/>
<path d="M28.567 27.5C28.9902 27.5 29.3333 27.1569 29.3333 26.7336C29.3333 26.3104 28.9902 25.9673 28.567 25.9673C28.1438 25.9673 27.8007 26.3104 27.8007 26.7336C27.8007 27.1569 28.1438 27.5 28.567 27.5Z" fill="black"/>
<path d="M25.8857 27.5C26.309 27.5 26.6521 27.1569 26.6521 26.7336C26.6521 26.3104 26.309 25.9673 25.8857 25.9673C25.4625 25.9673 25.1194 26.3104 25.1194 26.7336C25.1194 27.1569 25.4625 27.5 25.8857 27.5Z" fill="black"/>
<path d="M23.204 27.5C23.6272 27.5 23.9703 27.1569 23.9703 26.7336C23.9703 26.3104 23.6272 25.9673 23.204 25.9673C22.7807 25.9673 22.4376 26.3104 22.4376 26.7336C22.4376 27.1569 22.7807 27.5 23.204 27.5Z" fill="black"/>
<path d="M20.5223 27.5C20.9455 27.5 21.2886 27.1569 21.2886 26.7336C21.2886 26.3104 20.9455 25.9673 20.5223 25.9673C20.0991 25.9673 19.756 26.3104 19.756 26.7336C19.756 27.1569 20.0991 27.5 20.5223 27.5Z" fill="black"/>
<path d="M17.8406 27.5C18.2638 27.5 18.6069 27.1569 18.6069 26.7336C18.6069 26.3104 18.2638 25.9673 17.8406 25.9673C17.4173 25.9673 17.0742 26.3104 17.0742 26.7336C17.0742 27.1569 17.4173 27.5 17.8406 27.5Z" fill="black"/>
<path d="M15.1593 27.5C15.5825 27.5 15.9256 27.1569 15.9256 26.7336C15.9256 26.3104 15.5825 25.9673 15.1593 25.9673C14.736 25.9673 14.3929 26.3104 14.3929 26.7336C14.3929 27.1569 14.736 27.5 15.1593 27.5Z" fill="black"/>
<path d="M12.4776 27.5C12.9009 27.5 13.244 27.1569 13.244 26.7336C13.244 26.3104 12.9009 25.9673 12.4776 25.9673C12.0544 25.9673 11.7113 26.3104 11.7113 26.7336C11.7113 27.1569 12.0544 27.5 12.4776 27.5Z" fill="black"/>
<path d="M9.79587 27.5C10.2191 27.5 10.5622 27.1569 10.5622 26.7336C10.5622 26.3104 10.2191 25.9673 9.79587 25.9673C9.37264 25.9673 9.02954 26.3104 9.02954 26.7336C9.02954 27.1569 9.37264 27.5 9.79587 27.5Z" fill="black"/>
<path d="M12.8333 9.62492V7.79159C12.8333 7.79159 12.8333 5.95825 14.9938 5.95825H17.8749" stroke="black" stroke-linecap="round" stroke-linejoin="round"/>
<path d="M20.1665 9.62492V7.79159C20.1665 7.79159 20.1665 5.95825 18.006 5.95825H15.1249" stroke="black" stroke-linecap="round" stroke-linejoin="round"/>
</svg>
