<svg width="27" height="27" viewBox="0 0 27 27" fill="none" xmlns="http://www.w3.org/2000/svg">
<g clip-path="url(#clip0_3859_1850)">
<path d="M8.71947 5.6161C8.63616 5.70274 8.56819 5.80292 8.51847 5.91235L8.51247 5.90635L0.10047 24.8559L0.10872 24.8641C-0.0472796 25.1664 0.213721 25.7814 0.748471 26.3169C1.28322 26.8516 1.89822 27.1126 2.20047 26.9566L2.20797 26.9641L21.1575 18.5514L21.1515 18.5446C21.2617 18.4921 21.363 18.4284 21.4477 18.3429C22.6192 17.1714 20.7195 13.3726 17.2057 9.8581C13.6905 6.3436 9.89172 4.4446 8.71947 5.6161Z" fill="#DD2E44"/>
<path d="M9.74997 9L0.31197 24.3795L0.10047 24.8558L0.10872 24.864C-0.0472796 25.1663 0.21372 25.7813 0.74847 26.3168C0.92247 26.4908 1.10322 26.6228 1.28022 26.7345L12.75 12.75L9.74997 9Z" fill="#EA596E"/>
<path d="M17.259 9.79947C20.7615 13.3035 22.7062 17.0385 21.6007 18.1425C20.496 19.248 16.761 17.304 13.2562 13.8015C9.753 10.2975 7.809 6.56097 8.91375 5.45622C10.0192 4.35147 13.7542 6.29547 17.259 9.79947Z" fill="#A0041E"/>
<path d="M13.9425 10.2068C13.866 10.2689 13.778 10.3151 13.6835 10.3428C13.5889 10.3704 13.4899 10.379 13.392 10.3681C12.741 10.2976 12.1935 10.0711 11.8103 9.71332C11.4045 9.33457 11.2043 8.82607 11.259 8.31682C11.355 7.42282 12.252 6.60232 13.7813 6.76732C14.376 6.83107 14.6415 6.63982 14.6505 6.54832C14.661 6.45757 14.4428 6.21382 13.848 6.14932C13.197 6.07882 12.6495 5.85232 12.2655 5.49457C11.8598 5.11582 11.6588 4.60732 11.7143 4.09807C11.8118 3.20407 12.708 2.38357 14.2358 2.54932C14.6693 2.59582 14.898 2.50657 14.9948 2.44882C15.072 2.40157 15.1028 2.35657 15.1058 2.33032C15.1148 2.23957 14.8995 1.99582 14.3032 1.93132C14.2053 1.92086 14.1103 1.89116 14.0239 1.84392C13.9374 1.79668 13.8611 1.73284 13.7994 1.65605C13.7376 1.57926 13.6917 1.49104 13.6641 1.39645C13.6365 1.30185 13.6279 1.20275 13.6388 1.10482C13.6491 1.00688 13.6787 0.911953 13.7259 0.825491C13.7731 0.739029 13.8368 0.662736 13.9136 0.600991C13.9903 0.539246 14.0785 0.493267 14.173 0.465694C14.2675 0.438121 14.3666 0.429497 14.4645 0.440318C15.9922 0.604568 16.6942 1.59682 16.5975 2.49157C16.5 3.38707 15.6038 4.20607 14.0745 4.04182C13.641 3.99457 13.4145 4.08457 13.317 4.14232C13.2398 4.18882 13.2083 4.23457 13.2053 4.26007C13.1955 4.35157 13.4123 4.59457 14.0085 4.65907C15.5363 4.82407 16.2382 5.81557 16.1415 6.71032C16.0448 7.60432 15.1485 8.42482 13.62 8.25907C13.1865 8.21257 12.9585 8.30257 12.861 8.35957C12.783 8.40757 12.753 8.45257 12.75 8.47807C12.7403 8.56882 12.957 8.81257 13.5525 8.87707C13.7 8.89298 13.8394 8.95227 13.9532 9.04742C14.067 9.14258 14.15 9.26933 14.1917 9.41166C14.2335 9.55399 14.2321 9.7055 14.1877 9.84703C14.1433 9.98857 14.058 10.1138 13.9425 10.2068Z" fill="#AA8DD8"/>
<path d="M22.9957 17.1428C24.4755 16.7251 25.4962 17.3851 25.7392 18.2513C25.9822 19.1168 25.4557 20.2126 23.9767 20.6288C23.3992 20.7908 23.226 21.0668 23.2492 21.1546C23.2747 21.2431 23.568 21.3886 24.144 21.2258C25.623 20.8096 26.6437 21.4696 26.8867 22.3351C27.1312 23.2013 26.6032 24.2956 25.1235 24.7126C24.5467 24.8746 24.3727 25.1513 24.3982 25.2391C24.423 25.3268 24.7155 25.4723 25.2922 25.3103C25.3879 25.2808 25.4886 25.2706 25.5882 25.2806C25.6879 25.2905 25.7845 25.3203 25.8725 25.3682C25.9605 25.4161 26.0379 25.4812 26.1003 25.5595C26.1627 25.6378 26.2088 25.7279 26.2359 25.8243C26.2629 25.9207 26.2704 26.0216 26.2578 26.121C26.2453 26.2203 26.2129 26.3162 26.1627 26.4028C26.1125 26.4895 26.0455 26.5652 25.9655 26.6256C25.8856 26.6859 25.7944 26.7296 25.6972 26.7541C24.219 27.1703 23.1975 26.5118 22.953 25.6448C22.71 24.7793 23.2372 23.6851 24.7177 23.2681C25.2952 23.1053 25.4685 22.8301 25.443 22.7416C25.419 22.6538 25.1265 22.5076 24.5505 22.6696C23.07 23.0866 22.05 22.4281 21.8062 21.5603C21.5625 20.6948 22.0897 19.6006 23.5695 19.1828C24.1455 19.0216 24.3187 18.7441 24.2947 18.6571C24.2692 18.5686 23.9775 18.4231 23.4007 18.5851C23.3043 18.6176 23.2023 18.6301 23.101 18.6219C22.9996 18.6137 22.9009 18.585 22.811 18.5375C22.721 18.49 22.6417 18.4246 22.5778 18.3455C22.5139 18.2664 22.4667 18.175 22.4392 18.0771C22.4117 17.9792 22.4044 17.8767 22.4178 17.7758C22.4312 17.675 22.4649 17.5779 22.517 17.4905C22.569 17.4031 22.6383 17.3272 22.7206 17.2675C22.8029 17.2077 22.8965 17.1653 22.9957 17.1428Z" fill="#77B255"/>
<path d="M17.2507 15.12C17.0954 15.1198 16.944 15.0714 16.8173 14.9815C16.6906 14.8917 16.595 14.7647 16.5435 14.6182C16.492 14.4717 16.4872 14.3128 16.5297 14.1634C16.5723 14.0141 16.6602 13.8816 16.7812 13.7843C16.9447 13.653 20.8447 10.59 26.3564 11.3783C26.4562 11.3895 26.5526 11.4207 26.64 11.4699C26.7275 11.5191 26.8042 11.5854 26.8656 11.6648C26.9269 11.7442 26.9717 11.8351 26.9974 11.9321C27.023 12.0292 27.0288 12.1303 27.0146 12.2297C27.0004 12.329 26.9664 12.4245 26.9147 12.5105C26.8629 12.5964 26.7944 12.6711 26.7132 12.7301C26.632 12.7891 26.5399 12.8313 26.4421 12.854C26.3444 12.8767 26.2431 12.8796 26.1442 12.8625C21.2744 12.171 17.7539 14.928 17.7194 14.9558C17.5864 15.0622 17.4211 15.1201 17.2507 15.12Z" fill="#AA8DD8"/>
<path d="M4.31548 12.0001C4.19858 12.0001 4.08329 11.9728 3.97883 11.9203C3.87436 11.8678 3.78361 11.7917 3.7138 11.6979C3.644 11.6041 3.59709 11.4953 3.5768 11.3802C3.55652 11.2651 3.56343 11.1468 3.59698 11.0348C4.44673 8.20507 5.21698 3.68932 4.27048 2.51182C4.16473 2.37832 4.00498 2.24707 3.63898 2.27482C2.93548 2.32882 3.00223 3.81307 3.00298 3.82807C3.0125 3.92743 3.0021 4.02769 2.97238 4.12298C2.94265 4.21827 2.89421 4.30666 2.82988 4.38299C2.76555 4.45931 2.68664 4.52203 2.59776 4.56746C2.50888 4.61289 2.41183 4.64012 2.31229 4.64756C2.21275 4.655 2.11273 4.64249 2.01808 4.61077C1.92344 4.57906 1.83608 4.52877 1.76112 4.46285C1.68617 4.39693 1.62512 4.31672 1.58157 4.22691C1.53801 4.13709 1.51283 4.03949 1.50748 3.93982C1.43023 2.90557 1.75198 0.913568 3.52648 0.779318C4.31848 0.719318 4.97623 0.994568 5.44048 1.57207C7.21873 3.78532 5.41348 10.2016 5.03398 11.4661C4.98754 11.6205 4.89256 11.7558 4.76314 11.852C4.63371 11.9482 4.47673 12.0001 4.31548 12.0001Z" fill="#77B255"/>
<path d="M19.125 8.25C19.7463 8.25 20.25 7.74632 20.25 7.125C20.25 6.50368 19.7463 6 19.125 6C18.5037 6 18 6.50368 18 7.125C18 7.74632 18.5037 8.25 19.125 8.25Z" fill="#5C913B"/>
<path d="M1.5 15C2.32843 15 3 14.3284 3 13.5C3 12.6716 2.32843 12 1.5 12C0.671573 12 0 12.6716 0 13.5C0 14.3284 0.671573 15 1.5 15Z" fill="#9266CC"/>
<path d="M24.375 15.75C24.9963 15.75 25.5 15.2463 25.5 14.625C25.5 14.0037 24.9963 13.5 24.375 13.5C23.7537 13.5 23.25 14.0037 23.25 14.625C23.25 15.2463 23.7537 15.75 24.375 15.75Z" fill="#5C913B"/>
<path d="M17.625 24.75C18.2463 24.75 18.75 24.2463 18.75 23.625C18.75 23.0037 18.2463 22.5 17.625 22.5C17.0037 22.5 16.5 23.0037 16.5 23.625C16.5 24.2463 17.0037 24.75 17.625 24.75Z" fill="#5C913B"/>
<path d="M21 4.5C21.8284 4.5 22.5 3.82843 22.5 3C22.5 2.17157 21.8284 1.5 21 1.5C20.1716 1.5 19.5 2.17157 19.5 3C19.5 3.82843 20.1716 4.5 21 4.5Z" fill="#FFCC4D"/>
<path d="M24.375 7.5C24.9963 7.5 25.5 6.99632 25.5 6.375C25.5 5.75368 24.9963 5.25 24.375 5.25C23.7537 5.25 23.25 5.75368 23.25 6.375C23.25 6.99632 23.7537 7.5 24.375 7.5Z" fill="#FFCC4D"/>
<path d="M22.125 10.5C22.7463 10.5 23.25 9.99632 23.25 9.375C23.25 8.75368 22.7463 8.25 22.125 8.25C21.5037 8.25 21 8.75368 21 9.375C21 9.99632 21.5037 10.5 22.125 10.5Z" fill="#FFCC4D"/>
<path d="M5.625 18.75C6.24632 18.75 6.75 18.2463 6.75 17.625C6.75 17.0037 6.24632 16.5 5.625 16.5C5.00368 16.5 4.5 17.0037 4.5 17.625C4.5 18.2463 5.00368 18.75 5.625 18.75Z" fill="#FFCC4D"/>
</g>
<defs>
<clipPath id="clip0_3859_1850">
<rect width="27" height="27" fill="white"/>
</clipPath>
</defs>
</svg>
