<svg width="42" height="42" viewBox="0 0 42 42" fill="none" xmlns="http://www.w3.org/2000/svg">
<path d="M31.5 5.25H10.5C9.10761 5.25 7.77226 5.80312 6.78769 6.78769C5.80312 7.77226 5.25 9.10761 5.25 10.5V31.5C5.25 32.8924 5.80312 34.2277 6.78769 35.2123C7.77226 36.1969 9.10761 36.75 10.5 36.75H31.5C32.8924 36.75 34.2277 36.1969 35.2123 35.2123C36.1969 34.2277 36.75 32.8924 36.75 31.5V10.5C36.75 9.10761 36.1969 7.77226 35.2123 6.78769C34.2277 5.80312 32.8924 5.25 31.5 5.25ZM10.5 8.75H31.5C31.9641 8.75 32.4093 8.93437 32.7374 9.26256C33.0656 9.59075 33.25 10.0359 33.25 10.5V25.13L27.65 20.3525C26.7823 19.6386 25.6936 19.2482 24.57 19.2482C23.4464 19.2482 22.3577 19.6386 21.49 20.3525L8.75 30.975V10.5C8.75 10.0359 8.93437 9.59075 9.26256 9.26256C9.59075 8.93437 10.0359 8.75 10.5 8.75ZM31.5 33.25H11.48L23.73 23.03C23.9653 22.8553 24.2506 22.7609 24.5437 22.7609C24.8369 22.7609 25.1222 22.8553 25.3575 23.03L33.25 29.75V31.5C33.25 31.9641 33.0656 32.4093 32.7374 32.7374C32.4093 33.0656 31.9641 33.25 31.5 33.25Z" fill="white"/>
<path d="M14 17.5C15.4497 17.5 16.625 16.3247 16.625 14.875C16.625 13.4253 15.4497 12.25 14 12.25C12.5503 12.25 11.375 13.4253 11.375 14.875C11.375 16.3247 12.5503 17.5 14 17.5Z" fill="white"/>
</svg>
