<svg width="460" height="316" viewBox="0 0 460 316" fill="none" xmlns="http://www.w3.org/2000/svg">
<g filter="url(#filter0_d_3853_5037)">
<rect x="19.6455" y="110.531" width="150.031" height="189.484" rx="4" transform="rotate(-18.2867 19.6455 110.531)" fill="white"/>
</g>
<rect x="33.1064" y="115.125" width="131.557" height="61.0935" rx="4" transform="rotate(-17.7304 33.1064 115.125)" fill="#BD9DF4"/>
<path d="M76.0576 101.812L117.67 87.3852L137.072 143.348L114.356 151.224C103.919 154.842 92.526 149.314 88.9079 138.878L76.0576 101.812Z" fill="#FBCE37"/>
<path d="M88.2374 120.882C85.8238 121.719 83.5916 123.002 81.6681 124.659C79.7447 126.316 78.1677 128.313 77.0271 130.538C75.8866 132.763 75.2049 135.171 75.0209 137.624C74.8369 140.078 75.1543 142.53 75.9549 144.839C76.7555 147.148 78.0237 149.27 79.687 151.083C81.3503 152.897 83.3761 154.366 85.6489 155.407C87.9217 156.448 90.3968 157.041 92.933 157.152C95.4693 157.263 98.0169 156.889 100.43 156.052L97.3822 147.26C96.1754 147.678 94.9016 147.865 93.6335 147.81C92.3654 147.754 91.1278 147.458 89.9914 146.937C88.855 146.417 87.8421 145.682 87.0104 144.775C86.1788 143.869 85.5447 142.808 85.1444 141.653C84.7441 140.498 84.5854 139.273 84.6774 138.046C84.7694 136.819 85.1103 135.615 85.6805 134.503C86.2508 133.39 87.0393 132.391 88.001 131.563C88.9628 130.735 90.0789 130.093 91.2857 129.675L88.2374 120.882Z" fill="#6330C6"/>
<path d="M75.9543 144.838C76.7549 147.147 78.023 149.269 79.6863 151.083C81.3496 152.896 83.3755 154.365 85.6482 155.407C87.921 156.448 90.3962 157.041 92.9324 157.151C95.4686 157.262 98.0162 156.888 100.43 156.052L97.3815 147.259C96.1748 147.677 94.9009 147.864 93.6328 147.809C92.3647 147.754 91.1271 147.457 89.9908 146.936C88.8544 146.416 87.8414 145.681 87.0098 144.775C86.1782 143.868 85.5441 142.807 85.1438 141.652L75.9543 144.838Z" fill="#F24789"/>
<rect x="59.4131" y="107.583" width="17.6171" height="12.1739" transform="rotate(-19.1206 59.4131 107.583)" fill="#A07CDF"/>
<rect x="76.0576" y="101.812" width="17.6171" height="22.709" transform="rotate(-19.1206 76.0576 101.812)" fill="#189F99"/>
<path d="M43.1012 141.206C38.3207 127.417 45.6237 112.363 59.413 107.582L74.7166 151.725C77.1069 158.62 73.4554 166.147 66.5607 168.537C59.6661 170.927 52.1392 167.276 49.7489 160.381L43.1012 141.206Z" fill="#FBCE37"/>
<path d="M127.793 112.229C123.012 98.4397 130.315 83.3858 144.104 78.6053L159.408 122.748C161.798 129.643 158.147 137.17 151.252 139.56C144.357 141.95 136.831 138.299 134.44 131.404L127.793 112.229Z" fill="#FBCE37"/>
<path fill-rule="evenodd" clip-rule="evenodd" d="M69.6875 120.171C72.2856 121.361 74.2594 123.513 75.1747 126.153L66.8517 129.039L74.7168 151.725C77.1071 158.62 73.4556 166.147 66.5609 168.537L54.2912 133.145L54.2941 133.144C53.4661 130.564 53.7078 127.744 54.9751 125.272C56.279 122.728 58.5615 120.762 61.3206 119.806C64.0797 118.849 67.0894 118.981 69.6875 120.171Z" fill="#189F99"/>
<path fill-rule="evenodd" clip-rule="evenodd" d="M154.378 91.1937C156.976 92.384 158.95 94.5359 159.865 97.1758L151.542 100.061L159.407 122.748C161.798 129.643 158.146 137.17 151.251 139.56L138.982 104.168L138.985 104.167C138.157 101.587 138.398 98.7663 139.666 96.2943C140.97 93.7512 143.252 91.7851 146.011 90.8286C148.77 89.872 151.78 90.0034 154.378 91.1937Z" fill="#189F99"/>
<path d="M53.0986 157.346L46.4531 138.177C43.1775 128.729 48.1815 118.414 57.6297 115.138V115.138" stroke="white" stroke-width="2"/>
<path d="M137.79 128.369L131.144 109.2C127.869 99.7516 132.873 89.4369 142.321 86.1614V86.1614" stroke="white" stroke-width="2"/>
<rect x="88.3682" y="110.429" width="8.80853" height="1.87291" transform="rotate(-19.1206 88.3682 110.429)" fill="white"/>
<rect x="89.3271" y="113.194" width="8.80853" height="1.87291" transform="rotate(-19.1206 89.3271 113.194)" fill="white"/>
<rect x="90.2852" y="115.959" width="8.80853" height="1.87291" transform="rotate(-19.1206 90.2852 115.959)" fill="white"/>
<rect x="91.2061" y="118.613" width="8.80853" height="1.87291" transform="rotate(-19.1206 91.2061 118.613)" fill="white"/>
<path d="M125.109 108.842C124.132 106.024 122.519 103.458 120.362 101.29C118.205 99.1214 115.546 97.3936 112.537 96.205C109.527 95.0164 106.227 94.3902 102.824 94.3621C99.421 94.334 95.9819 94.9046 92.7031 96.0413L100.142 117.497L125.109 108.842Z" fill="#F24789"/>
<path d="M107.58 138.953C110.859 137.817 113.913 136.136 116.569 134.008C119.224 131.879 121.429 129.344 123.056 126.548C124.684 123.752 125.703 120.749 126.055 117.711C126.408 114.673 126.086 111.659 125.109 108.841L100.142 117.497L107.58 138.953Z" fill="#BD9DF4"/>
<path d="M125.109 108.842C124.132 106.024 122.519 103.458 120.362 101.29C118.205 99.1214 115.546 97.3936 112.537 96.205L100.142 117.497L125.109 108.842Z" fill="#6330C6"/>
<line x1="97.5103" y1="138.976" x2="103.108" y2="155.124" stroke="#189F99" stroke-width="2"/>
<line x1="101.209" y1="137.693" x2="106.807" y2="153.84" stroke="#189F99" stroke-width="2"/>
<line x1="99.3599" y1="138.334" x2="104.958" y2="154.482" stroke="#189F99" stroke-width="2"/>
<line x1="104.908" y1="136.411" x2="110.506" y2="152.558" stroke="#189F99" stroke-width="2"/>
<line x1="103.058" y1="137.052" x2="108.656" y2="153.199" stroke="#189F99" stroke-width="2"/>
<rect x="57.1064" y="201.463" width="131.557" height="4.68966" rx="2.34483" transform="rotate(-17.0889 57.1064 201.463)" fill="#F4F6FA"/>
<rect x="61.2266" y="209.861" width="131.557" height="4.68966" rx="2.34483" transform="rotate(-17.0889 61.2266 209.861)" fill="#F4F6FA"/>
<rect x="64.4414" y="218.645" width="131.557" height="4.68966" rx="2.34483" transform="rotate(-17.0889 64.4414 218.645)" fill="#F4F6FA"/>
<rect x="68.1084" y="227.236" width="131.557" height="4.68966" rx="2.34483" transform="rotate(-17.0889 68.1084 227.236)" fill="#F4F6FA"/>
<rect x="71.7764" y="235.827" width="131.557" height="4.68966" rx="2.34483" transform="rotate(-17.0889 71.7764 235.827)" fill="#F4F6FA"/>
<rect x="80.2666" y="255.714" width="131.557" height="4.68966" rx="2.34483" transform="rotate(-17.0889 80.2666 255.714)" fill="#F4F6FA"/>
<rect x="83.9199" y="264.274" width="131.557" height="4.68966" rx="2.34483" transform="rotate(-17.0889 83.9199 264.274)" fill="#F4F6FA"/>
<path d="M56.5802 183.194L54.9182 177.846L56.7441 177.279C57.3705 177.084 57.9197 177.036 58.3917 177.135C58.8672 177.228 59.2643 177.445 59.5829 177.787C59.905 178.123 60.1499 178.56 60.3177 179.1C60.4855 179.64 60.5326 180.142 60.459 180.606C60.3889 181.063 60.185 181.467 59.8472 181.818C59.5129 182.162 59.0325 182.432 58.4061 182.626L56.5802 183.194ZM57.2969 182.05L58.0991 181.8C58.5473 181.661 58.8791 181.48 59.0945 181.256C59.3083 181.028 59.4293 180.761 59.4575 180.457C59.4841 180.147 59.4372 179.798 59.3169 179.411C59.1982 179.029 59.0401 178.718 58.8425 178.478C58.645 178.238 58.3934 178.084 58.0878 178.017C57.7821 177.95 57.4052 177.986 56.957 178.126L56.1549 178.375L57.2969 182.05ZM63.8582 181.032C63.4762 181.151 63.1122 181.175 62.7661 181.104C62.4201 181.033 62.1171 180.875 61.8573 180.632C61.5974 180.389 61.4073 180.074 61.287 179.687C61.1651 179.295 61.1382 178.92 61.2062 178.564C61.2793 178.206 61.4349 177.898 61.6729 177.64C61.9145 177.375 62.2339 177.181 62.6312 177.057C63.003 176.942 63.3568 176.921 63.6927 176.996C64.0285 177.07 64.3197 177.225 64.5662 177.461C64.8163 177.691 64.9951 177.979 65.1027 178.325C65.1202 178.381 65.1358 178.44 65.1497 178.503C65.1687 178.564 65.1859 178.629 65.2014 178.696L62.3213 179.592C62.4335 179.881 62.6074 180.081 62.843 180.192C63.0836 180.301 63.3364 180.315 63.6012 180.233C63.7999 180.171 63.9519 180.076 64.0574 179.948C64.1665 179.814 64.2319 179.665 64.2538 179.502L65.2469 179.193C65.25 179.455 65.1984 179.711 65.0921 179.962C64.9892 180.206 64.833 180.422 64.6234 180.61C64.4188 180.797 64.1638 180.937 63.8582 181.032ZM62.8781 177.852C62.6387 177.926 62.4487 178.061 62.3081 178.255C62.1659 178.445 62.1121 178.685 62.1467 178.976L64.0336 178.389C63.9408 178.144 63.7874 177.974 63.5734 177.879C63.3594 177.783 63.1277 177.774 62.8781 177.852ZM68.149 179.699C67.8128 179.803 67.5008 179.842 67.2129 179.814C66.9235 179.781 66.6722 179.691 66.4593 179.545C66.2464 179.399 66.085 179.204 65.9753 178.959L66.9608 178.652C67.0373 178.791 67.1584 178.893 67.324 178.958C67.4932 179.017 67.6847 179.014 67.8986 178.947C68.1125 178.881 68.2544 178.789 68.3243 178.673C68.3992 178.554 68.4193 178.439 68.3845 178.327C68.3338 178.164 68.2285 178.077 68.0685 178.065C67.9069 178.048 67.69 178.051 67.418 178.075C67.2439 178.09 67.0649 178.098 66.8811 178.099C66.6972 178.1 66.522 178.085 66.3557 178.053C66.1928 178.014 66.0491 177.947 65.9246 177.852C65.7984 177.751 65.7068 177.61 65.6499 177.426C65.5454 177.09 65.59 176.766 65.7836 176.455C65.9823 176.142 66.3235 175.91 66.8074 175.76C67.2556 175.62 67.6445 175.614 67.9743 175.74C68.3091 175.865 68.559 176.103 68.7239 176.454L67.7995 176.741C67.6564 176.479 67.4015 176.404 67.0348 176.518C66.8514 176.575 66.7199 176.655 66.6402 176.758C66.5656 176.86 66.5449 176.964 66.5782 177.071C66.613 177.183 66.7145 177.249 66.8828 177.269C67.0511 177.289 67.2662 177.29 67.528 177.27C67.8119 177.248 68.0752 177.242 68.3179 177.25C68.5642 177.252 68.7765 177.306 68.9548 177.413C69.1315 177.514 69.2618 177.7 69.3457 177.97C69.4236 178.202 69.4282 178.433 69.3594 178.661C69.2907 178.889 69.1532 179.094 68.9471 179.275C68.741 179.456 68.4749 179.598 68.149 179.699ZM69.7348 174.305C69.5565 174.361 69.3922 174.353 69.2418 174.282C69.0965 174.21 68.9986 174.093 68.9479 173.93C68.8973 173.767 68.9121 173.617 68.9925 173.48C69.0764 173.337 69.2075 173.238 69.3858 173.182C69.564 173.127 69.7258 173.135 69.8711 173.207C70.0199 173.273 70.1196 173.387 70.1702 173.55C70.2209 173.713 70.2043 173.866 70.1204 174.009C70.0416 174.151 69.913 174.25 69.7348 174.305ZM70.6063 178.835L69.4287 175.045L70.4065 174.741L71.5842 178.531L70.6063 178.835ZM73.8577 176.584C73.6744 176.641 73.4974 176.674 73.3269 176.682L73.1321 177.053C73.2329 177.072 73.3619 177.073 73.5191 177.058C73.6763 177.043 73.9252 176.999 74.2657 176.927C74.7842 176.816 75.1881 176.821 75.4774 176.944C75.7668 177.066 75.9644 177.298 76.0705 177.639C76.1401 177.863 76.1447 178.093 76.0842 178.33C76.0253 178.572 75.8875 178.793 75.6708 178.995C75.4558 179.201 75.1496 179.366 74.7523 179.49C74.2125 179.657 73.7454 179.691 73.351 179.59C72.9582 179.494 72.6993 179.245 72.5743 178.843C72.4682 178.502 72.5419 178.155 72.7954 177.802C72.6793 177.788 72.5751 177.768 72.4829 177.74C72.3958 177.712 72.3155 177.678 72.2421 177.639L72.1875 177.464L72.6337 176.554C72.2575 176.386 72.0062 176.099 71.8795 175.691C71.8004 175.436 71.7895 175.186 71.8468 174.939C71.9093 174.691 72.0361 174.47 72.2273 174.276C72.4185 174.083 72.677 173.935 73.003 173.834C73.2169 173.767 73.425 173.736 73.6274 173.74L75.0636 173.294L75.2488 173.89L74.6137 174.138C74.7757 174.3 74.8931 174.498 74.9659 174.732C75.0451 174.987 75.056 175.237 74.9986 175.484C74.9413 175.731 74.8145 175.952 74.6182 176.147C74.427 176.34 74.1735 176.486 73.8577 176.584ZM73.6251 175.836C73.8237 175.774 73.97 175.67 74.0641 175.523C74.1633 175.375 74.182 175.202 74.1203 175.003C74.0586 174.804 73.9449 174.672 73.7792 174.606C73.6186 174.539 73.4391 174.536 73.2404 174.598C73.0316 174.663 72.8802 174.769 72.7861 174.915C72.692 175.062 72.6758 175.234 72.7375 175.433C72.7993 175.631 72.9104 175.764 73.071 175.832C73.2316 175.899 73.4162 175.9 73.6251 175.836ZM73.4372 178.466C73.4958 178.654 73.6259 178.767 73.8276 178.805C74.0359 178.847 74.2674 178.828 74.522 178.749C74.7665 178.673 74.9493 178.56 75.0704 178.411C75.1931 178.266 75.2284 178.11 75.1762 177.942C75.1334 177.805 75.0469 177.706 74.9165 177.646C74.7913 177.584 74.5778 177.589 74.276 177.661C74.0625 177.71 73.8618 177.747 73.6741 177.772C73.5517 177.9 73.4724 178.022 73.4363 178.139C73.4053 178.255 73.4056 178.364 73.4372 178.466ZM76.9543 176.862L75.7766 173.072L76.6399 172.804L76.9158 173.422C76.9632 173.162 77.0759 172.931 77.2538 172.731C77.4367 172.529 77.6784 172.381 77.9789 172.288C78.4475 172.142 78.8575 172.176 79.2091 172.391C79.5606 172.606 79.825 172.998 80.0023 173.569L80.6671 175.708L79.6893 176.012L79.0529 173.964C78.9516 173.638 78.8079 173.409 78.6216 173.277C78.4354 173.145 78.2022 173.123 77.9221 173.21C77.6471 173.295 77.4505 173.463 77.3324 173.712C77.2194 173.959 77.2167 174.256 77.3243 174.602L77.9322 176.558L76.9543 176.862ZM83.4455 174.844L81.7835 169.497L83.9302 168.829C84.4853 168.657 84.9484 168.655 85.3194 168.825C85.694 168.988 85.9438 169.27 86.0688 169.673C86.1733 170.009 86.1655 170.307 86.0455 170.568C85.9289 170.822 85.7519 171.025 85.5143 171.177C85.8389 171.143 86.1385 171.218 86.4131 171.4C86.6861 171.578 86.8725 171.827 86.9722 172.148C87.1036 172.571 87.0592 172.967 86.8391 173.337C86.619 173.707 86.2288 173.979 85.6686 174.153L83.4455 174.844ZM83.4594 171.439L84.4831 171.121C84.7581 171.035 84.9497 170.906 85.0578 170.733C85.1659 170.559 85.1836 170.356 85.1108 170.121C85.0411 169.897 84.9127 169.744 84.7254 169.663C84.5416 169.575 84.3046 169.576 84.0143 169.666L83.0059 169.98L83.4594 171.439ZM84.1764 173.746L85.2689 173.406C85.5592 173.316 85.7627 173.18 85.8794 172.999C85.9996 172.811 86.0218 172.594 85.9458 172.35C85.8682 172.1 85.7233 171.93 85.5109 171.84C85.2985 171.75 85.0497 171.749 84.7645 171.837L83.6873 172.172L84.1764 173.746ZM88.242 173.354L87.0644 169.564L87.9353 169.294L88.2478 169.976C88.3093 169.688 88.4351 169.437 88.625 169.222C88.8185 169 89.0756 168.839 89.3965 168.739L89.717 169.77L89.442 169.856C89.2281 169.922 89.0474 170.015 88.8999 170.133C88.7524 170.252 88.6556 170.407 88.6095 170.6C88.5685 170.792 88.5931 171.033 88.6833 171.323L89.2199 173.05L88.242 173.354ZM90.4376 167.871C90.2594 167.926 90.0951 167.919 89.9447 167.848C89.7994 167.776 89.7014 167.659 89.6508 167.496C89.6001 167.333 89.615 167.183 89.6954 167.046C89.7793 166.903 89.9104 166.803 90.0886 166.748C90.2669 166.692 90.4287 166.701 90.5739 166.773C90.7227 166.838 90.8225 166.953 90.8731 167.116C90.9238 167.279 90.9071 167.432 90.8232 167.575C90.7444 167.717 90.6159 167.816 90.4376 167.871ZM91.3092 172.4L90.1315 168.611L91.1094 168.307L92.2871 172.096L91.3092 172.4ZM95.1773 171.299C94.7954 171.417 94.4313 171.441 94.0853 171.37C93.7392 171.299 93.4363 171.142 93.1764 170.898C92.9165 170.655 92.7264 170.34 92.6061 169.953C92.4843 169.561 92.4573 169.187 92.5253 168.831C92.5984 168.473 92.754 168.165 92.9921 167.906C93.2337 167.641 93.5531 167.447 93.9503 167.324C94.3221 167.208 94.676 167.188 95.0118 167.262C95.3477 167.336 95.6389 167.491 95.8854 167.728C96.1354 167.957 96.3143 168.245 96.4219 168.591C96.4393 168.647 96.455 168.707 96.4689 168.769C96.4879 168.831 96.5051 168.895 96.5206 168.963L93.6405 169.858C93.7527 170.147 93.9265 170.347 94.1621 170.458C94.4028 170.568 94.6556 170.581 94.9204 170.499C95.119 170.437 95.2711 170.342 95.3766 170.215C95.4856 170.08 95.5511 169.931 95.573 169.768L96.5661 169.46C96.5692 169.721 96.5176 169.977 96.4112 170.228C96.3084 170.472 96.1522 170.689 95.9425 170.877C95.738 171.063 95.4829 171.204 95.1773 171.299ZM94.1973 168.118C93.9579 168.193 93.7679 168.327 93.6273 168.522C93.4851 168.711 93.4313 168.951 93.4658 169.242L95.3528 168.656C95.2599 168.411 95.1065 168.241 94.8926 168.145C94.6786 168.05 94.4468 168.041 94.1973 168.118ZM98.0492 170.306L97.1256 167.334L96.6061 167.495L96.3521 166.678L96.8716 166.516L96.7339 166.073C96.5914 165.615 96.6047 165.253 96.7737 164.989C96.9479 164.722 97.2336 164.527 97.6308 164.404L98.051 164.273L98.3098 165.106L98.0424 165.189C97.8743 165.241 97.7649 165.312 97.7142 165.4C97.6635 165.488 97.6627 165.611 97.7117 165.769L97.8494 166.212L98.6669 165.958L98.9209 166.776L98.1035 167.03L99.0271 170.002L98.0492 170.306Z" fill="black"/>
<g filter="url(#filter1_d_3853_5037)">
<rect x="300.093" y="78.0568" width="150.031" height="189.484" rx="4" transform="rotate(14.9214 300.093 78.0568)" fill="white"/>
</g>
<rect x="308.839" y="89.2734" width="131.557" height="61.0935" rx="4" transform="rotate(15.4777 308.839 89.2734)" fill="#091732"/>
<path d="M357.354 103.41L399.832 115.047L384.181 172.173L360.993 165.82C350.34 162.901 344.07 151.899 346.989 141.246L357.354 103.41Z" fill="#74B63A"/>
<path d="M356.613 126.026C354.15 125.351 351.583 125.147 349.06 125.425C346.536 125.704 344.106 126.459 341.907 127.649C339.708 128.838 337.784 130.439 336.245 132.358C334.705 134.278 333.581 136.479 332.935 138.836C332.289 141.194 332.135 143.661 332.481 146.097C332.827 148.533 333.667 150.89 334.952 153.035C336.238 155.179 337.944 157.068 339.973 158.593C342.002 160.119 344.314 161.252 346.778 161.927L349.237 152.951C348.005 152.614 346.849 152.048 345.834 151.285C344.82 150.522 343.967 149.577 343.324 148.505C342.681 147.433 342.261 146.255 342.088 145.036C341.915 143.818 341.992 142.585 342.315 141.406C342.638 140.228 343.2 139.127 343.97 138.167C344.74 137.207 345.702 136.407 346.801 135.812C347.901 135.218 349.116 134.84 350.378 134.701C351.639 134.561 352.923 134.663 354.154 135.001L356.613 126.026Z" fill="#54AF67"/>
<path d="M332.935 138.835C332.29 141.192 332.135 143.66 332.482 146.096C332.828 148.532 333.667 150.889 334.953 153.033C336.238 155.178 337.944 157.066 339.973 158.592C342.002 160.118 344.315 161.251 346.778 161.925L349.237 152.95C348.005 152.613 346.849 152.046 345.835 151.284C344.82 150.521 343.967 149.576 343.325 148.504C342.682 147.432 342.262 146.253 342.089 145.035C341.916 143.817 341.993 142.584 342.316 141.405L332.935 138.835Z" fill="white"/>
<rect x="340.363" y="98.7549" width="17.6171" height="12.1739" transform="rotate(15.3212 340.363 98.7549)" fill="#237914"/>
<rect x="357.354" y="103.41" width="17.6171" height="22.709" transform="rotate(15.3212 357.354 103.41)" fill="#189F99"/>
<path d="M307.895 117.259C311.751 103.183 326.288 94.8986 340.363 98.7549L328.019 143.815C326.09 150.853 318.822 154.995 311.784 153.067C304.746 151.138 300.604 143.87 302.532 136.832L307.895 117.259Z" fill="#74B63A"/>
<path d="M394.128 141.26C397.984 127.184 412.521 118.9 426.597 122.756L414.252 167.816C412.324 174.854 405.055 178.996 398.017 177.068C390.98 175.14 386.837 167.871 388.765 160.833L394.128 141.26Z" fill="#74B63A"/>
<path fill-rule="evenodd" clip-rule="evenodd" d="M341.717 114.947C343.187 117.399 343.598 120.289 342.859 122.984L334.364 120.657L328.02 143.815C326.092 150.853 318.823 154.995 311.785 153.067L321.621 117.166L321.621 117.166C321.628 117.137 321.636 117.108 321.645 117.08L321.683 116.94L321.685 116.94C322.462 114.344 324.256 112.155 326.699 110.833C329.213 109.473 332.207 109.143 335.024 109.914C337.84 110.686 340.248 112.496 341.717 114.947Z" fill="#189F99"/>
<path fill-rule="evenodd" clip-rule="evenodd" d="M427.95 138.949C429.419 141.4 429.83 144.291 429.092 146.985L420.597 144.658L414.252 167.816C412.324 174.854 405.056 178.996 398.018 177.068L407.853 141.167L407.853 141.167C407.86 141.14 407.868 141.113 407.876 141.085L407.915 140.941L407.918 140.942C408.694 138.345 410.489 136.156 412.932 134.834C415.445 133.474 418.44 133.144 421.256 133.915C424.072 134.687 426.48 136.498 427.95 138.949Z" fill="#189F99"/>
<path d="M307.012 136.224L312.372 116.657C315.015 107.012 324.975 101.336 334.62 103.978V103.978" stroke="white" stroke-width="2"/>
<path d="M393.245 160.225L398.606 140.658C401.248 131.013 411.209 125.337 420.853 127.979V127.979" stroke="white" stroke-width="2"/>
<rect x="362.633" y="117.479" width="8.80853" height="1.87291" transform="rotate(15.3212 362.633 117.479)" fill="white"/>
<rect x="361.859" y="120.301" width="8.80853" height="1.87291" transform="rotate(15.3212 361.859 120.301)" fill="white"/>
<rect x="361.088" y="123.124" width="8.80853" height="1.87291" transform="rotate(15.3212 361.088 123.124)" fill="white"/>
<rect x="360.345" y="125.833" width="8.80853" height="1.87291" transform="rotate(15.3212 360.345 125.833)" fill="white"/>
<path d="M393.832 136.949C394.62 134.073 394.741 131.044 394.188 128.036C393.635 125.028 392.419 122.099 390.61 119.417C388.801 116.735 386.433 114.352 383.642 112.404C380.852 110.456 377.693 108.982 374.346 108.065L368.345 129.967L393.832 136.949Z" fill="white"/>
<path d="M362.345 151.868C365.692 152.785 369.161 153.127 372.555 152.873C375.949 152.62 379.2 151.776 382.124 150.391C385.048 149.005 387.587 147.105 389.595 144.799C391.604 142.493 393.044 139.825 393.832 136.949L368.345 129.967L362.345 151.868Z" fill="#237914"/>
<path d="M393.832 136.949C394.62 134.073 394.741 131.044 394.188 128.036C393.635 125.028 392.419 122.099 390.61 119.417L368.345 129.967L393.832 136.949Z" fill="#54AF67"/>
<line x1="354.028" y1="146.191" x2="349.512" y2="162.674" stroke="#189F99" stroke-width="2"/>
<line x1="357.803" y1="147.226" x2="353.288" y2="163.709" stroke="#189F99" stroke-width="2"/>
<line x1="355.916" y1="146.709" x2="351.4" y2="163.192" stroke="#189F99" stroke-width="2"/>
<line x1="361.579" y1="148.261" x2="357.063" y2="164.743" stroke="#189F99" stroke-width="2"/>
<line x1="359.692" y1="147.743" x2="355.176" y2="164.226" stroke="#189F99" stroke-width="2"/>
<rect x="281.634" y="174.656" width="131.557" height="4.68966" rx="2.34483" transform="rotate(16.1192 281.634 174.656)" fill="#F4F6FA"/>
<rect x="280.482" y="183.939" width="131.557" height="4.68966" rx="2.34483" transform="rotate(16.1192 280.482 183.939)" fill="#F4F6FA"/>
<rect x="278.359" y="193.049" width="131.557" height="4.68966" rx="2.34483" transform="rotate(16.1192 278.359 193.049)" fill="#F4F6FA"/>
<rect x="276.725" y="202.245" width="131.557" height="4.68966" rx="2.34483" transform="rotate(16.1192 276.725 202.245)" fill="#F4F6FA"/>
<rect x="275.089" y="211.443" width="131.557" height="4.68966" rx="2.34483" transform="rotate(16.1192 275.089 211.443)" fill="#F4F6FA"/>
<rect x="271.299" y="232.731" width="131.557" height="4.68966" rx="2.34483" transform="rotate(16.1192 271.299 232.731)" fill="#F4F6FA"/>
<rect x="269.669" y="241.895" width="131.557" height="4.68966" rx="2.34483" transform="rotate(16.1192 269.669 241.895)" fill="#F4F6FA"/>
<path d="M291.2 159.082L292.739 153.697L294.577 154.223C295.208 154.403 295.693 154.664 296.034 155.005C296.381 155.343 296.595 155.742 296.674 156.203C296.759 156.66 296.725 157.16 296.569 157.704C296.414 158.247 296.179 158.693 295.863 159.041C295.554 159.386 295.162 159.612 294.687 159.72C294.219 159.825 293.67 159.787 293.039 159.607L291.2 159.082ZM292.427 158.517L293.234 158.748C293.686 158.877 294.063 158.907 294.365 158.838C294.669 158.764 294.916 158.607 295.107 158.368C295.299 158.123 295.45 157.806 295.562 157.416C295.672 157.031 295.71 156.684 295.676 156.375C295.642 156.066 295.516 155.8 295.297 155.576C295.078 155.353 294.743 155.177 294.291 155.048L293.484 154.817L292.427 158.517ZM298.473 161.26C298.089 161.15 297.771 160.97 297.521 160.721C297.27 160.472 297.103 160.175 297.018 159.829C296.934 159.483 296.948 159.115 297.059 158.726C297.172 158.331 297.354 158.003 297.606 157.742C297.863 157.483 298.162 157.31 298.503 157.225C298.85 157.135 299.224 157.148 299.624 157.262C299.998 157.369 300.306 157.545 300.546 157.791C300.786 158.038 300.945 158.327 301.022 158.66C301.105 158.989 301.097 159.327 300.998 159.676C300.981 159.732 300.962 159.791 300.939 159.851C300.922 159.912 300.901 159.976 300.877 160.041L297.977 159.212C297.912 159.516 297.948 159.778 298.084 160C298.226 160.224 298.43 160.374 298.696 160.45C298.896 160.507 299.076 160.511 299.234 160.462C299.399 160.409 299.535 160.32 299.643 160.196L300.643 160.482C300.502 160.702 300.318 160.888 300.092 161.04C299.872 161.188 299.623 161.283 299.345 161.326C299.072 161.369 298.781 161.348 298.473 161.26ZM299.395 158.062C299.154 157.993 298.922 158.001 298.697 158.087C298.475 158.168 298.298 158.339 298.168 158.601L300.068 159.144C300.124 158.889 300.089 158.662 299.962 158.465C299.836 158.268 299.647 158.134 299.395 158.062ZM302.794 162.494C302.455 162.397 302.173 162.258 301.948 162.077C301.724 161.891 301.562 161.679 301.464 161.44C301.366 161.201 301.338 160.949 301.381 160.684L302.373 160.968C302.361 161.125 302.407 161.277 302.509 161.422C302.618 161.565 302.781 161.666 302.996 161.728C303.211 161.789 303.38 161.791 303.503 161.731C303.63 161.673 303.71 161.588 303.742 161.475C303.789 161.311 303.749 161.18 303.621 161.083C303.495 160.98 303.312 160.864 303.072 160.735C302.918 160.652 302.764 160.561 302.609 160.461C302.455 160.361 302.316 160.253 302.195 160.135C302.08 160.013 301.996 159.878 301.944 159.73C301.894 159.577 301.895 159.408 301.948 159.224C302.044 158.885 302.259 158.639 302.592 158.484C302.929 158.331 303.342 158.324 303.829 158.463C304.28 158.592 304.609 158.8 304.816 159.086C305.027 159.374 305.106 159.71 305.052 160.094L304.121 159.828C304.145 159.53 303.973 159.328 303.604 159.222C303.419 159.17 303.265 159.165 303.142 159.207C303.024 159.251 302.95 159.327 302.919 159.435C302.887 159.547 302.935 159.658 303.065 159.768C303.195 159.877 303.375 159.995 303.605 160.121C303.854 160.259 304.078 160.398 304.276 160.538C304.481 160.674 304.629 160.836 304.72 161.022C304.812 161.204 304.82 161.431 304.742 161.703C304.68 161.94 304.558 162.135 304.375 162.288C304.193 162.441 303.966 162.537 303.694 162.576C303.422 162.615 303.122 162.588 302.794 162.494ZM307.075 158.85C306.895 158.798 306.762 158.702 306.675 158.561C306.593 158.421 306.575 158.269 306.622 158.105C306.669 157.94 306.763 157.823 306.905 157.753C307.054 157.679 307.218 157.668 307.398 157.719C307.577 157.77 307.708 157.866 307.79 158.006C307.879 158.142 307.9 158.292 307.853 158.456C307.806 158.62 307.708 158.739 307.559 158.813C307.416 158.889 307.254 158.901 307.075 158.85ZM305.323 163.117L306.413 159.301L307.398 159.583L306.308 163.398L305.323 163.117ZM309.276 163.014C309.092 162.962 308.926 162.892 308.778 162.806L308.412 163.009C308.486 163.08 308.593 163.152 308.733 163.225C308.873 163.299 309.105 163.398 309.43 163.524C309.924 163.716 310.259 163.942 310.434 164.202C310.609 164.463 310.648 164.765 310.55 165.109C310.485 165.335 310.363 165.53 310.183 165.695C310.001 165.865 309.765 165.974 309.473 166.024C309.18 166.079 308.833 166.05 308.433 165.935C307.89 165.78 307.481 165.552 307.206 165.252C306.93 164.957 306.849 164.606 306.965 164.201C307.063 163.858 307.315 163.608 307.72 163.452C307.631 163.376 307.555 163.302 307.493 163.229C307.435 163.157 307.387 163.085 307.346 163.012L307.397 162.835L308.268 162.319C308.046 161.972 307.993 161.594 308.11 161.184C308.183 160.927 308.312 160.712 308.495 160.537C308.683 160.363 308.91 160.247 309.176 160.19C309.442 160.133 309.739 160.151 310.067 160.245C310.283 160.307 310.474 160.395 310.641 160.509L312.087 160.922L311.916 161.522L311.249 161.381C311.295 161.606 311.285 161.836 311.218 162.072C311.145 162.328 311.016 162.544 310.833 162.719C310.65 162.894 310.423 163.009 310.152 163.065C309.886 163.122 309.594 163.105 309.276 163.014ZM309.491 162.261C309.691 162.318 309.871 162.311 310.03 162.24C310.194 162.17 310.305 162.035 310.362 161.835C310.419 161.635 310.396 161.462 310.294 161.317C310.196 161.172 310.047 161.072 309.847 161.014C309.637 160.954 309.453 160.96 309.294 161.031C309.135 161.102 309.027 161.238 308.969 161.438C308.912 161.638 308.932 161.81 309.03 161.954C309.127 162.098 309.281 162.201 309.491 162.261ZM307.894 164.358C307.84 164.548 307.886 164.714 308.034 164.856C308.186 165.005 308.39 165.116 308.647 165.189C308.893 165.26 309.107 165.265 309.29 165.207C309.472 165.153 309.587 165.042 309.636 164.873C309.675 164.734 309.657 164.604 309.581 164.483C309.51 164.362 309.328 164.25 309.037 164.144C308.831 164.069 308.642 163.99 308.472 163.908C308.3 163.947 308.166 164.006 308.072 164.085C307.982 164.165 307.923 164.256 307.894 164.358ZM311.715 164.943L312.805 161.127L313.674 161.376L313.567 162.044C313.749 161.852 313.969 161.721 314.228 161.65C314.492 161.581 314.775 161.59 315.077 161.677C315.549 161.811 315.873 162.065 316.05 162.437C316.227 162.809 316.233 163.282 316.069 163.857L315.453 166.011L314.469 165.729L315.058 163.668C315.152 163.34 315.157 163.069 315.073 162.857C314.99 162.644 314.807 162.498 314.525 162.417C314.248 162.338 313.992 162.37 313.757 162.514C313.527 162.659 313.362 162.906 313.262 163.255L312.7 165.224L311.715 164.943ZM318.251 166.81L319.789 161.425L321.951 162.043C322.51 162.202 322.898 162.455 323.116 162.8C323.34 163.141 323.394 163.514 323.278 163.919C323.182 164.258 323.012 164.503 322.768 164.656C322.532 164.804 322.272 164.877 321.99 164.874C322.281 165.024 322.49 165.25 322.62 165.554C322.751 165.852 322.771 166.162 322.678 166.485C322.557 166.911 322.303 167.218 321.916 167.407C321.529 167.596 321.054 167.61 320.489 167.449L318.251 166.81ZM320.128 163.968L321.159 164.262C321.435 164.342 321.667 164.338 321.852 164.252C322.037 164.167 322.164 164.006 322.231 163.77C322.295 163.544 322.272 163.346 322.16 163.176C322.054 163.001 321.855 162.872 321.563 162.789L320.547 162.499L320.128 163.968ZM319.464 166.291L320.564 166.605C320.856 166.689 321.101 166.687 321.298 166.599C321.502 166.507 321.639 166.338 321.709 166.092C321.781 165.841 321.753 165.619 321.624 165.427C321.496 165.235 321.289 165.098 321.001 165.016L319.917 164.706L319.464 166.291ZM323.081 168.189L324.171 164.374L325.048 164.625L324.935 165.366C325.144 165.16 325.387 165.018 325.664 164.942C325.948 164.862 326.251 164.868 326.574 164.961L326.277 165.999L326 165.92C325.785 165.859 325.583 165.837 325.395 165.855C325.207 165.874 325.04 165.951 324.896 166.087C324.757 166.225 324.645 166.44 324.562 166.732L324.065 168.471L323.081 168.189ZM327.92 164.805C327.741 164.753 327.608 164.657 327.52 164.516C327.438 164.376 327.421 164.224 327.468 164.06C327.515 163.896 327.609 163.778 327.751 163.708C327.9 163.634 328.064 163.623 328.243 163.674C328.423 163.725 328.554 163.821 328.636 163.961C328.724 164.097 328.745 164.247 328.698 164.411C328.652 164.575 328.554 164.694 328.405 164.768C328.261 164.844 328.1 164.856 327.92 164.805ZM326.169 169.072L327.259 165.256L328.244 165.538L327.154 169.353L326.169 169.072ZM330.009 170.268C329.624 170.159 329.307 169.979 329.056 169.73C328.805 169.481 328.638 169.184 328.554 168.838C328.47 168.492 328.483 168.124 328.594 167.734C328.707 167.34 328.89 167.012 329.142 166.751C329.399 166.492 329.698 166.319 330.038 166.233C330.386 166.144 330.759 166.156 331.159 166.271C331.533 166.378 331.841 166.554 332.081 166.8C332.321 167.046 332.48 167.336 332.557 167.668C332.64 167.997 332.632 168.336 332.533 168.685C332.517 168.741 332.497 168.8 332.475 168.86C332.457 168.921 332.436 168.985 332.412 169.05L329.512 168.221C329.448 168.525 329.483 168.787 329.62 169.009C329.761 169.233 329.965 169.382 330.232 169.459C330.432 169.516 330.611 169.52 330.769 169.471C330.934 169.418 331.07 169.329 331.178 169.205L332.178 169.49C332.037 169.711 331.854 169.897 331.627 170.049C331.408 170.197 331.159 170.292 330.88 170.334C330.607 170.378 330.316 170.356 330.009 170.268ZM330.931 167.071C330.69 167.002 330.457 167.01 330.233 167.096C330.01 167.177 329.834 167.348 329.703 167.61L331.603 168.153C331.66 167.897 331.624 167.671 331.498 167.474C331.371 167.277 331.182 167.142 330.931 167.071ZM332.956 171.01L333.81 168.018L333.287 167.869L333.522 167.046L334.045 167.195L334.173 166.749C334.305 166.287 334.514 165.992 334.8 165.863C335.092 165.736 335.438 165.729 335.838 165.843L336.261 165.964L336.021 166.803L335.752 166.726C335.583 166.677 335.453 166.676 335.362 166.723C335.271 166.769 335.203 166.871 335.158 167.03L335.03 167.476L335.853 167.711L335.618 168.535L334.795 168.299L333.94 171.292L332.956 171.01Z" fill="black"/>
<g filter="url(#filter2_d_3853_5037)">
<rect x="169.034" y="17.1946" width="150.031" height="189.484" rx="4" transform="rotate(6.56068 169.034 17.1946)" fill="white"/>
</g>
<rect x="164.816" y="115.451" width="131.557" height="4.68966" rx="2.34483" transform="rotate(7.75852 164.816 115.451)" fill="#F4F6FA"/>
<rect x="165.027" y="124.802" width="131.557" height="4.68966" rx="2.34483" transform="rotate(7.75852 165.027 124.802)" fill="#F4F6FA"/>
<rect x="164.253" y="134.125" width="131.557" height="4.68966" rx="2.34483" transform="rotate(7.75852 164.253 134.125)" fill="#F4F6FA"/>
<rect x="163.971" y="143.461" width="131.557" height="4.68966" rx="2.34483" transform="rotate(7.75852 163.971 143.461)" fill="#F4F6FA"/>
<rect x="163.689" y="152.798" width="131.557" height="4.68966" rx="2.34483" transform="rotate(7.75852 163.689 152.798)" fill="#F4F6FA"/>
<rect x="163.036" y="174.411" width="131.557" height="4.68966" rx="2.34483" transform="rotate(7.75852 163.036 174.411)" fill="#F4F6FA"/>
<rect x="162.756" y="183.714" width="131.557" height="4.68966" rx="2.34483" transform="rotate(7.75852 162.756 183.714)" fill="#F4F6FA"/>
<path d="M172.018 98.6518L172.757 93.1007L174.652 93.353C175.302 93.4396 175.821 93.627 176.207 93.9152C176.6 94.1988 176.869 94.5628 177.014 95.0072C177.166 95.447 177.204 95.9471 177.129 96.5075C177.055 97.0679 176.887 97.5432 176.625 97.9334C176.369 98.319 176.014 98.6 175.56 98.7763C175.112 98.9481 174.563 98.9906 173.913 98.9041L172.018 98.6518ZM173.149 97.9146L173.981 98.0254C174.447 98.0874 174.824 98.0623 175.113 97.9501C175.403 97.8327 175.625 97.6416 175.779 97.3769C175.933 97.1069 176.037 96.771 176.09 96.3692C176.143 95.9727 176.13 95.624 176.052 95.323C175.974 95.0221 175.81 94.777 175.561 94.5878C175.312 94.3986 174.954 94.273 174.489 94.2111L173.657 94.1002L173.149 97.9146ZM179.53 99.7487C179.134 99.6959 178.793 99.5645 178.509 99.3545C178.225 99.1445 178.016 98.8746 177.883 98.5447C177.749 98.2149 177.709 97.8491 177.762 97.4473C177.817 97.0402 177.949 96.6893 178.161 96.3946C178.377 96.1007 178.648 95.8865 178.973 95.7522C179.303 95.6132 179.675 95.5712 180.087 95.6261C180.473 95.6775 180.803 95.8075 181.076 96.016C181.35 96.2246 181.549 96.4879 181.673 96.8057C181.804 97.119 181.845 97.4554 181.797 97.8149C181.789 97.8731 181.779 97.9335 181.765 97.9962C181.756 98.0597 181.745 98.1254 181.731 98.1934L178.741 97.7955C178.721 98.1049 178.795 98.3595 178.962 98.5593C179.134 98.7598 179.358 98.8784 179.633 98.915C179.839 98.9424 180.017 98.9203 180.166 98.8488C180.322 98.7726 180.444 98.6651 180.532 98.5262L181.563 98.6634C181.456 98.9021 181.301 99.1129 181.1 99.2958C180.904 99.4742 180.671 99.6046 180.402 99.6872C180.138 99.7704 179.847 99.7909 179.53 99.7487ZM179.977 96.4508C179.729 96.4178 179.5 96.4599 179.29 96.5773C179.082 96.6894 178.932 96.8847 178.841 97.1632L180.8 97.4239C180.819 97.1628 180.751 96.9439 180.597 96.7674C180.443 96.5908 180.236 96.4853 179.977 96.4508ZM183.984 100.342C183.635 100.295 183.336 100.199 183.086 100.053C182.838 99.9011 182.647 99.7144 182.515 99.4923C182.383 99.2703 182.319 99.0251 182.323 98.7565L183.346 98.8927C183.357 99.0502 183.424 99.1936 183.547 99.323C183.675 99.4477 183.851 99.5248 184.073 99.5544C184.295 99.584 184.462 99.5605 184.574 99.484C184.692 99.4082 184.759 99.3121 184.774 99.1958C184.797 99.0266 184.738 98.9031 184.598 98.8253C184.458 98.7421 184.26 98.6539 184.003 98.5605C183.839 98.501 183.673 98.4332 183.506 98.3571C183.338 98.281 183.186 98.1935 183.048 98.0945C182.917 97.9909 182.815 97.8697 182.742 97.7308C182.669 97.5867 182.646 97.4195 182.671 97.2291C182.718 96.8802 182.894 96.6051 183.201 96.4038C183.513 96.2032 183.92 96.1363 184.422 96.2032C184.887 96.2651 185.243 96.4228 185.489 96.6761C185.74 96.9302 185.867 97.251 185.869 97.6387L184.91 97.511C184.89 97.2125 184.69 97.0379 184.31 96.9872C184.119 96.9619 183.966 96.9792 183.851 97.0391C183.74 97.0997 183.678 97.1856 183.663 97.2966C183.648 97.4129 183.712 97.5156 183.856 97.6048C184 97.6939 184.195 97.7844 184.441 97.8764C184.708 97.9764 184.949 98.0812 185.166 98.1908C185.389 98.2957 185.559 98.434 185.676 98.6057C185.794 98.772 185.834 98.9952 185.797 99.2754C185.77 99.5193 185.677 99.7303 185.519 99.9083C185.36 100.086 185.15 100.214 184.886 100.292C184.623 100.37 184.322 100.387 183.984 100.342ZM187.69 96.1136C187.504 96.0889 187.359 96.013 187.252 95.8858C187.15 95.7593 187.111 95.6115 187.133 95.4423C187.156 95.2731 187.232 95.1434 187.363 95.0532C187.499 94.9583 187.66 94.9232 187.845 94.9478C188.03 94.9725 188.173 95.048 188.275 95.1745C188.382 95.2965 188.425 95.442 188.402 95.6112C188.38 95.7804 188.3 95.9124 188.164 96.0072C188.033 96.1027 187.875 96.1382 187.69 96.1136ZM186.577 100.59L187.101 96.6566L188.116 96.7917L187.592 100.725L186.577 100.59ZM190.473 99.9141C190.283 99.8888 190.109 99.8441 189.95 99.7799L189.618 100.034C189.701 100.094 189.818 100.15 189.967 100.202C190.116 100.254 190.36 100.319 190.7 100.396C191.217 100.513 191.581 100.688 191.792 100.921C192.003 101.153 192.085 101.447 192.038 101.801C192.007 102.034 191.914 102.245 191.76 102.434C191.605 102.629 191.387 102.772 191.106 102.863C190.824 102.96 190.476 102.981 190.064 102.926C189.504 102.852 189.066 102.686 188.75 102.429C188.434 102.177 188.304 101.842 188.359 101.424C188.407 101.07 188.619 100.786 188.997 100.573C188.898 100.511 188.812 100.449 188.74 100.386C188.673 100.323 188.614 100.258 188.564 100.193L188.588 100.01L189.375 99.3725C189.104 99.062 188.997 98.6953 189.053 98.2724C189.089 98.0081 189.184 97.776 189.34 97.5761C189.501 97.377 189.709 97.2298 189.963 97.1346C190.218 97.0393 190.515 97.0143 190.853 97.0593C191.075 97.0889 191.277 97.148 191.459 97.2368L192.95 97.4353L192.868 98.0538L192.187 98.0117C192.266 98.2266 192.289 98.4557 192.257 98.6989C192.222 98.9632 192.126 99.1953 191.971 99.3952C191.815 99.5951 191.607 99.7422 191.347 99.8367C191.092 99.932 190.801 99.9577 190.473 99.9141ZM190.577 99.137C190.783 99.1644 190.959 99.1314 191.106 99.038C191.259 98.9453 191.348 98.7958 191.376 98.5896C191.403 98.3835 191.356 98.2157 191.233 98.0864C191.116 97.9578 190.954 97.8797 190.748 97.8523C190.531 97.8234 190.349 97.8557 190.202 97.9492C190.055 98.0426 189.968 98.1924 189.94 98.3986C189.913 98.6048 189.958 98.7722 190.075 98.9008C190.193 99.0294 190.36 99.1081 190.577 99.137ZM189.301 101.445C189.275 101.64 189.345 101.798 189.512 101.917C189.684 102.042 189.902 102.122 190.166 102.157C190.42 102.191 190.633 102.166 190.806 102.081C190.978 102.002 191.076 101.875 191.099 101.7C191.118 101.558 191.081 101.432 190.988 101.322C190.9 101.214 190.704 101.129 190.4 101.067C190.186 101.022 189.988 100.971 189.807 100.915C189.643 100.979 189.519 101.057 189.437 101.148C189.36 101.24 189.315 101.339 189.301 101.445ZM193.166 101.467L193.69 97.5338L194.586 97.6531L194.577 98.3298C194.729 98.1133 194.928 97.9515 195.174 97.8443C195.425 97.7378 195.706 97.7054 196.018 97.7469C196.505 97.8116 196.862 98.0153 197.091 98.3578C197.32 98.7003 197.395 99.1676 197.316 99.7597L197.02 101.98L196.005 101.845L196.288 99.7198C196.333 99.3814 196.299 99.1132 196.186 98.9152C196.072 98.7171 195.87 98.5987 195.579 98.56C195.294 98.522 195.045 98.5912 194.833 98.7674C194.627 98.9444 194.5 99.2126 194.452 99.5721L194.182 101.602L193.166 101.467ZM199.904 102.364L200.643 96.813L202.872 97.1097C203.448 97.1864 203.869 97.3796 204.134 97.6893C204.406 97.9945 204.514 98.3559 204.458 98.7735C204.412 99.1224 204.279 99.39 204.061 99.5761C203.848 99.7577 203.602 99.8675 203.323 99.9056C203.632 100.011 203.872 100.205 204.045 100.486C204.218 100.762 204.282 101.066 204.238 101.399C204.179 101.838 203.972 102.179 203.617 102.422C203.262 102.666 202.794 102.749 202.212 102.671L199.904 102.364ZM201.348 99.2796L202.411 99.421C202.696 99.459 202.924 99.4222 203.095 99.3104C203.266 99.1986 203.368 99.0212 203.4 98.778C203.431 98.5454 203.379 98.3528 203.243 98.2002C203.113 98.043 202.898 97.9444 202.597 97.9043L201.55 97.7649L201.348 99.2796ZM201.029 101.674L202.163 101.825C202.465 101.866 202.706 101.828 202.889 101.712C203.077 101.592 203.188 101.405 203.222 101.151C203.256 100.892 203.196 100.677 203.041 100.506C202.886 100.334 202.661 100.229 202.365 100.19L201.247 100.041L201.029 101.674ZM204.883 103.027L205.407 99.0935L206.311 99.2139L206.308 99.964C206.485 99.7293 206.704 99.5541 206.967 99.4384C207.236 99.3182 207.537 99.2802 207.87 99.3246L207.728 100.395L207.442 100.357C207.22 100.328 207.017 100.336 206.834 100.381C206.65 100.427 206.497 100.527 206.374 100.683C206.256 100.84 206.177 101.068 206.137 101.37L205.898 103.162L204.883 103.027ZM209.18 98.9743C208.995 98.9497 208.849 98.8738 208.742 98.7466C208.64 98.6201 208.601 98.4722 208.623 98.303C208.646 98.1339 208.722 98.0042 208.853 97.9139C208.989 97.8191 209.15 97.784 209.335 97.8086C209.52 97.8332 209.663 97.9088 209.765 98.0353C209.872 98.1572 209.915 98.3028 209.892 98.4719C209.87 98.6411 209.79 98.7731 209.654 98.868C209.523 98.9635 209.365 98.9989 209.18 98.9743ZM208.067 103.451L208.591 99.5174L209.606 99.6525L209.082 103.586L208.067 103.451ZM212.04 104.076C211.644 104.024 211.303 103.892 211.019 103.682C210.735 103.472 210.526 103.202 210.393 102.872C210.259 102.543 210.219 102.177 210.272 101.775C210.327 101.368 210.459 101.017 210.671 100.722C210.887 100.428 211.158 100.214 211.483 100.08C211.813 99.941 212.185 99.8989 212.597 99.9538C212.983 100.005 213.313 100.135 213.586 100.344C213.86 100.552 214.059 100.816 214.183 101.133C214.314 101.447 214.355 101.783 214.307 102.143C214.299 102.201 214.289 102.261 214.275 102.324C214.267 102.387 214.255 102.453 214.241 102.521L211.251 102.123C211.231 102.433 211.305 102.687 211.472 102.887C211.645 103.088 211.868 103.206 212.143 103.243C212.349 103.27 212.527 103.248 212.677 103.176C212.832 103.1 212.954 102.993 213.042 102.854L214.073 102.991C213.966 103.23 213.812 103.441 213.61 103.624C213.414 103.802 213.181 103.932 212.912 104.015C212.648 104.098 212.357 104.119 212.04 104.076ZM212.487 100.779C212.239 100.745 212.01 100.788 211.801 100.905C211.592 101.017 211.442 101.212 211.351 101.491L213.31 101.752C213.329 101.49 213.261 101.272 213.107 101.095C212.953 100.919 212.746 100.813 212.487 100.779ZM215.064 104.382L215.474 101.297L214.935 101.225L215.048 100.377L215.587 100.449L215.648 99.9888C215.712 99.513 215.876 99.1905 216.14 99.0212C216.41 98.8527 216.751 98.7959 217.164 98.8508L217.6 98.9088L217.485 99.7732L217.207 99.7363C217.033 99.7131 216.904 99.7309 216.821 99.7897C216.738 99.8486 216.685 99.96 216.663 100.124L216.602 100.584L217.451 100.697L217.338 101.545L216.489 101.432L216.079 104.517L215.064 104.382Z" fill="black"/>
<rect x="179.317" y="27.0201" width="131.557" height="61.0935" rx="4" transform="rotate(7.11702 179.317 27.0201)" fill="#161616"/>
<path d="M288.451 42.4377C247.019 52.473 187.687 77.3914 281.811 96.7829L288.451 42.4377Z" fill="white"/>
<path d="M298.963 47.5963C257.532 57.6316 199.122 74.9944 293.247 94.3859L298.963 47.5963Z" fill="#161616"/>
<path d="M309.075 51.787C267.871 59.9582 209.831 74.296 304.075 92.7131L309.075 51.787Z" fill="white"/>
<path d="M299.926 57.3791C273.41 63.7388 236.03 74.7491 296.291 87.1293L299.926 57.3791Z" fill="#161616"/>
<circle cx="0.158579" cy="0.158579" r="0.158579" transform="matrix(-0.992619 -0.121271 -0.121271 0.992619 246.443 75.3682)" fill="white"/>
<circle cx="0.158579" cy="0.158579" r="0.158579" transform="matrix(-0.992619 -0.121271 -0.121271 0.992619 184.994 28.4801)" fill="white"/>
<circle cx="0.158579" cy="0.158579" r="0.158579" transform="matrix(-0.992619 -0.121271 -0.121271 0.992619 281.478 75.6539)" fill="white"/>
<circle cx="0.158579" cy="0.158579" r="0.158579" transform="matrix(-0.992619 -0.121271 -0.121271 0.992619 235.888 38.2125)" fill="white"/>
<circle cx="0.158579" cy="0.158579" r="0.158579" transform="matrix(-0.992619 -0.121271 -0.121271 0.992619 211.213 77.3743)" fill="white"/>
<circle cx="0.158579" cy="0.158579" r="0.158579" transform="matrix(-0.992619 -0.121271 -0.121271 0.992619 259.159 92.2582)" fill="white"/>
<circle cx="0.158579" cy="0.158579" r="0.158579" transform="matrix(-0.992619 -0.121271 -0.121271 0.992619 250.96 47.5626)" fill="white"/>
<circle cx="0.158579" cy="0.158579" r="0.158579" transform="matrix(-0.992619 -0.121271 -0.121271 0.992619 217.625 56.868)" fill="white"/>
<circle cx="0.158579" cy="0.158579" r="0.158579" transform="matrix(-0.992619 -0.121271 -0.121271 0.992619 243.134 55.3931)" fill="white"/>
<circle cx="241.225" cy="77.8853" r="0.118934" transform="rotate(6.96548 241.225 77.8853)" fill="#161616"/>
<circle cx="284.336" cy="44.7306" r="0.118934" transform="rotate(6.96548 284.336 44.7306)" fill="#161616"/>
<circle cx="256.528" cy="85.3467" r="0.118934" transform="rotate(6.96548 256.528 85.3467)" fill="#161616"/>
<circle cx="265.936" cy="44.959" r="1.38756" transform="rotate(6.96548 265.936 44.959)" fill="white"/>
<circle cx="251.15" cy="63.8195" r="2.02188" transform="rotate(25.2656 251.15 63.8195)" fill="white"/>
<path d="M252.013 61.991C251.003 61.5144 249.812 61.9168 249.322 62.9565C249.075 63.4793 249.032 63.8769 249.195 64.4313C249.314 64.1803 252.627 62.4559 252.627 62.4559C252.627 62.4559 252.551 62.2448 252.013 61.991Z" fill="#161616"/>
<circle cx="240.796" cy="82.7055" r="0.277513" transform="rotate(6.96548 240.796 82.7055)" fill="#161616"/>
<circle cx="257.565" cy="72.9325" r="0.198223" transform="rotate(6.96548 257.565 72.9325)" fill="#161616"/>
<circle cx="269.353" cy="53.604" r="0.277513" transform="rotate(6.96548 269.353 53.604)" fill="#161616"/>
<rect x="260.751" y="60.9209" width="0.119942" height="0.119942" rx="0.0599709" transform="rotate(-17.4821 260.751 60.9209)" fill="white"/>
<rect x="234.315" y="81.8145" width="0.240602" height="0.240602" rx="0.120301" transform="rotate(-17.4821 234.315 81.8145)" fill="white"/>
<rect x="275.001" y="99.8855" width="0.240602" height="0.240602" rx="0.120301" transform="rotate(-17.4821 275.001 99.8855)" fill="white"/>
<rect x="209.582" y="39.7321" width="0.240602" height="0.240602" rx="0.120301" transform="rotate(-17.4821 209.582 39.7321)" fill="white"/>
<rect x="245.423" y="62.6644" width="0.208737" height="0.208737" rx="0.104368" transform="rotate(42.2718 245.423 62.6644)" fill="#161616"/>
<rect x="249.071" y="81.6741" width="0.24845" height="0.24845" rx="0.124225" transform="rotate(37.4197 249.071 81.6741)" fill="#161616"/>
<rect x="273.548" y="93.4806" width="0.24845" height="0.24845" rx="0.124225" transform="rotate(-17.4821 273.548 93.4806)" fill="#161616"/>
<rect x="280.072" y="59.6899" width="0.24845" height="0.24845" rx="0.124225" transform="rotate(-17.4821 280.072 59.6899)" fill="#161616"/>
<path d="M178.474 84.3433C178.502 84.4024 178.456 84.4696 178.39 84.4642C178.325 84.4588 178.29 84.3849 178.328 84.3312C178.365 84.2775 178.446 84.2842 178.474 84.3433Z" fill="white"/>
<path d="M284.62 41.1322C284.683 41.1127 284.743 41.1681 284.728 41.2319C284.714 41.2957 284.636 41.32 284.588 41.2757C284.54 41.2314 284.558 41.1516 284.62 41.1322Z" fill="white"/>
<path d="M277.36 65.2472C277.423 65.2277 277.483 65.2831 277.469 65.3469C277.454 65.4107 277.376 65.435 277.328 65.3907C277.28 65.3463 277.298 65.2666 277.36 65.2472Z" fill="white"/>
<path d="M248.259 69.9669C248.285 70.0337 248.265 70.1095 248.209 70.1548C248.154 70.2001 248.075 70.2044 248.015 70.1657C247.955 70.1269 247.927 70.0537 247.945 69.9845C247.963 69.9153 248.024 69.8657 248.096 69.8617C248.167 69.8577 248.233 69.9002 248.259 69.9669Z" fill="white"/>
<path d="M276.019 43.5557C276.09 43.564 276.148 43.6172 276.162 43.6874C276.176 43.7576 276.143 43.8289 276.081 43.864C276.018 43.899 275.941 43.8899 275.888 43.8414C275.835 43.7928 275.82 43.7159 275.85 43.6508C275.88 43.5858 275.948 43.5474 276.019 43.5557Z" fill="white"/>
<path d="M266.974 71.4945C266.993 71.524 266.992 71.5629 266.97 71.5908C266.948 71.6187 266.911 71.6293 266.877 71.617C266.844 71.6048 266.822 71.5724 266.824 71.5369C266.825 71.5014 266.849 71.4709 266.883 71.4612C266.917 71.4515 266.954 71.465 266.974 71.4945Z" fill="white"/>
<path d="M260.402 50.4343C260.473 50.4427 260.531 50.4959 260.545 50.5661C260.559 50.6363 260.526 50.7076 260.464 50.7426C260.401 50.7777 260.323 50.7686 260.271 50.72C260.218 50.6715 260.203 50.5945 260.233 50.5295C260.262 50.4644 260.331 50.426 260.402 50.4343Z" fill="white"/>
<path d="M269.946 78.302C269.968 78.3486 269.958 78.4044 269.921 78.4402C269.884 78.476 269.827 78.4837 269.782 78.4592C269.736 78.4347 269.712 78.3837 269.721 78.3328C269.73 78.2819 269.771 78.2426 269.822 78.2356C269.873 78.2286 269.923 78.2554 269.946 78.302Z" fill="white"/>
<path d="M270.218 86.4611C270.29 86.4694 270.347 86.5226 270.361 86.5928C270.375 86.663 270.343 86.7343 270.28 86.7694C270.218 86.8044 270.14 86.7953 270.087 86.7467C270.034 86.6982 270.019 86.6213 270.049 86.5562C270.079 86.4912 270.147 86.4527 270.218 86.4611Z" fill="white"/>
<path d="M250.742 92.2291C250.813 92.2375 250.871 92.2907 250.885 92.3609C250.899 92.4311 250.866 92.5024 250.804 92.5374C250.741 92.5725 250.663 92.5634 250.611 92.5148C250.558 92.4663 250.543 92.3893 250.572 92.3243C250.602 92.2592 250.671 92.2208 250.742 92.2291Z" fill="white"/>
<path d="M234.764 67.8601C234.82 67.8666 234.865 67.908 234.876 67.9628C234.887 68.0175 234.861 68.0731 234.812 68.1005C234.764 68.1278 234.703 68.1207 234.662 68.0828C234.621 68.045 234.609 67.985 234.632 67.9342C234.656 67.8835 234.709 67.8536 234.764 67.8601Z" fill="#161616"/>
<path d="M235.732 74.5458C235.797 74.5256 235.859 74.5832 235.844 74.6494C235.829 74.7157 235.748 74.7409 235.698 74.6949C235.648 74.6488 235.667 74.566 235.732 74.5458Z" fill="#161616"/>
<path d="M85.975 54.0408C89.3666 54.0408 92.116 51.2914 92.116 47.8998C92.116 44.5082 89.3666 41.7588 85.975 41.7588C82.5834 41.7588 79.834 44.5082 79.834 47.8998C79.834 51.2914 82.5834 54.0408 85.975 54.0408Z" fill="#3BA4F2"/>
<path d="M144.427 76.0672C145.442 75.1582 146.704 74.0254 147.194 72.1817C147.797 69.911 146.975 67.3761 144.749 64.6473C144.407 64.2331 143.9 63.9595 143.338 63.8863C142.776 63.813 142.205 63.946 141.75 64.2562C141.295 64.5664 140.992 65.0286 140.909 65.542C140.825 66.0554 140.967 66.5782 141.303 66.9963C142.281 68.1967 143.372 69.9097 143.016 71.254C142.826 71.9692 142.284 72.4824 141.417 73.2604C140.329 74.2352 138.976 75.4483 138.805 77.4613C138.649 79.3117 139.558 81.153 141.507 82.9343C141.706 83.1186 141.944 83.265 142.205 83.3651C142.466 83.4653 142.747 83.5172 143.03 83.5178C143.313 83.5185 143.594 83.468 143.856 83.3691C144.118 83.2702 144.356 83.1249 144.556 82.9417C144.756 82.7584 144.915 82.5407 145.023 82.3011C145.131 82.0616 145.186 81.8049 145.185 81.5458C145.184 81.2867 145.127 81.0303 145.017 80.7914C144.907 80.5526 144.747 80.3359 144.545 80.1539C143.539 79.2346 143.036 78.4096 143.091 77.7655C143.134 77.2751 143.531 76.8715 144.427 76.0672Z" fill="#FF9F03"/>
<path d="M126.01 37.2598C125.552 36.929 124.979 36.788 124.415 36.8679C123.85 36.9478 123.342 37.242 123.001 37.6858C120.777 40.5837 119.954 43.2755 120.556 45.6871C121.046 47.6437 122.309 48.8469 123.324 49.8129C124.22 50.666 124.617 51.0944 124.659 51.6169C124.712 52.3002 124.211 53.177 123.204 54.1532C123.003 54.3465 122.842 54.5766 122.733 54.8303C122.623 55.084 122.566 55.3562 122.565 55.6313C122.564 55.9065 122.619 56.1791 122.727 56.4335C122.835 56.6879 122.994 56.919 123.194 57.1137C123.394 57.3083 123.632 57.4626 123.894 57.5676C124.156 57.6726 124.437 57.7263 124.72 57.7255C125.003 57.7248 125.284 57.6697 125.545 57.5634C125.807 57.457 126.044 57.3015 126.243 57.1059C128.193 55.2142 129.102 53.2589 128.945 51.2939C128.774 49.1547 127.421 47.8675 126.334 46.8329C125.466 46.0066 124.924 45.4617 124.734 44.7022C124.377 43.2747 125.469 41.4555 126.447 40.1809C126.616 39.9612 126.739 39.7113 126.808 39.4456C126.877 39.1799 126.892 38.9036 126.852 38.6323C126.811 38.361 126.716 38.1002 126.571 37.8647C126.427 37.6292 126.236 37.4237 126.01 37.2598Z" fill="#FF9F03"/>
<path d="M54.2402 76.2939C48.7913 72.8432 41.3988 72.8237 35.4062 76.2441C35.1717 76.378 34.9669 76.5549 34.8036 76.7647C34.6403 76.9745 34.5217 77.2131 34.4545 77.4668C34.3874 77.7206 34.373 77.9846 34.4122 78.2437C34.4514 78.5028 34.5434 78.752 34.683 78.977C34.8226 79.202 35.007 79.3984 35.2258 79.555C35.4445 79.7116 35.6933 79.8254 35.9578 79.8898C36.2224 79.9542 36.4976 79.968 36.7678 79.9304C37.0379 79.8928 37.2977 79.8045 37.5323 79.6706C42.1631 77.0267 47.8223 77.0073 51.95 79.6208C56.1511 82.2814 57.0853 86.6474 57.2718 87.9209C57.307 88.1823 57.3959 88.4345 57.5334 88.6627C57.6709 88.891 57.8542 89.0908 58.0727 89.2506C58.2912 89.4105 58.5406 89.5271 58.8065 89.5939C59.0723 89.6607 59.3494 89.6762 59.6215 89.6396C59.8937 89.603 60.1556 89.515 60.392 89.3806C60.6285 89.2463 60.8348 89.0683 60.9991 88.857C61.1633 88.6456 61.2823 88.4052 61.349 88.1494C61.4157 87.8937 61.4289 87.6279 61.3877 87.3672C61.1404 85.6756 59.894 79.8745 54.2402 76.2939Z" fill="#B8E986"/>
<path d="M157.584 41.759L171.971 53.3724L164.229 62.9639L149.842 51.3505L157.584 41.759Z" fill="#02A437"/>
<path d="M213.708 47.5488L225.321 33.1616L234.913 40.9038L223.3 55.2911L213.708 47.5488Z" fill="#02A437"/>
<path d="M102.556 71.236C102 71.2356 101.454 71.0903 100.977 70.8157C100.501 70.541 100.11 70.1473 99.8482 69.6765C99.5861 69.2057 99.4619 68.6755 99.489 68.1423C99.516 67.6091 99.6933 67.0929 100.002 66.6488L106.147 57.7981C106.601 57.1517 107.304 56.7041 108.1 56.5533C108.897 56.4025 109.724 56.5606 110.399 56.9932C111.075 57.4257 111.545 58.0975 111.706 58.8617C111.867 59.6259 111.707 60.4203 111.26 61.0714L105.115 69.9221C104.834 70.3268 104.454 70.6585 104.007 70.8878C103.561 71.1171 103.062 71.2367 102.556 71.236Z" fill="#E82F3E"/>
<path d="M344.512 24.564C343.956 24.5636 343.41 24.4183 342.933 24.1437C342.457 23.8691 342.066 23.4754 341.804 23.0045C341.542 22.5337 341.418 22.0035 341.445 21.4703C341.472 20.9371 341.649 20.4209 341.958 19.9768L348.103 11.1261C348.557 10.4797 349.26 10.0321 350.056 9.88129C350.853 9.73047 351.68 9.88862 352.355 10.3212C353.031 10.7537 353.501 11.4255 353.662 12.1897C353.824 12.9539 353.663 13.7483 353.216 14.3994L347.071 23.2501C346.79 23.6548 346.41 23.9865 345.963 24.2158C345.517 24.4451 345.018 24.5647 344.512 24.564Z" fill="#E82F3E"/>
<path d="M171.335 86.0126C170.932 86.0132 170.533 85.934 170.16 85.7797C169.788 85.6253 169.449 85.3989 169.164 85.1134L163.023 78.9724C162.448 78.3965 162.124 77.6155 162.124 76.8012C162.124 75.9868 162.448 75.2058 163.023 74.6299C163.599 74.0541 164.38 73.7306 165.195 73.7306C166.009 73.7306 166.79 74.0541 167.366 74.6299L173.507 80.7709C173.936 81.2003 174.229 81.7475 174.347 82.3431C174.466 82.9387 174.405 83.5561 174.172 84.1172C173.94 84.6783 173.546 85.1578 173.041 85.4952C172.536 85.8326 171.943 86.0127 171.335 86.0126Z" fill="#50E3C2"/>
<path d="M412.063 76.1487C411.66 76.1493 411.26 76.0701 410.888 75.9158C410.515 75.7614 410.177 75.535 409.892 75.2495L403.751 69.1085C403.175 68.5327 402.852 67.7516 402.852 66.9373C402.852 66.1229 403.175 65.3419 403.751 64.766C404.327 64.1902 405.108 63.8667 405.922 63.8667C406.736 63.8667 407.517 64.1902 408.093 64.766L414.234 70.907C414.664 71.3364 414.956 71.8836 415.075 72.4792C415.193 73.0748 415.132 73.6922 414.9 74.2533C414.667 74.8144 414.274 75.2939 413.769 75.6313C413.264 75.9687 412.67 76.1488 412.063 76.1487Z" fill="#E82F3E"/>
<path d="M211.865 12.3204C211.258 12.3204 210.665 12.1403 210.16 11.8029C209.655 11.4656 209.261 10.986 209.029 10.4249C208.796 9.86385 208.735 9.24647 208.854 8.65084C208.972 8.0552 209.265 7.50807 209.694 7.07866L215.835 0.937683C216.411 0.361839 217.192 0.0383301 218.006 0.0383301C218.821 0.0383301 219.602 0.361839 220.178 0.937683C220.753 1.51353 221.077 2.29454 221.077 3.1089C221.077 3.92327 220.753 4.70428 220.178 5.28012L214.037 11.4211C213.752 11.7066 213.413 11.9331 213.041 12.0874C212.668 12.2417 212.269 12.3209 211.865 12.3204Z" fill="#50E3C2"/>
<path d="M167.651 12.282C167.248 12.2826 166.848 12.2034 166.476 12.0491C166.103 11.8947 165.765 11.6683 165.48 11.3828L159.339 5.24179C159.054 4.95666 158.827 4.61817 158.673 4.24563C158.519 3.87309 158.439 3.47381 158.439 3.07057C158.439 2.66734 158.519 2.26805 158.673 1.89551C158.827 1.52297 159.054 1.18448 159.339 0.899353C159.915 0.323509 160.696 0 161.51 0C161.913 0 162.313 0.079428 162.685 0.233739C163.058 0.388049 163.396 0.614224 163.681 0.899353L169.822 7.04033C170.252 7.46975 170.544 8.01687 170.662 8.6125C170.781 9.20813 170.72 9.82552 170.488 10.3866C170.255 10.9477 169.862 11.4272 169.357 11.7646C168.852 12.102 168.258 12.2821 167.651 12.282Z" fill="#E82F3E"/>
<path d="M307.619 57.7579L293.668 43.7279C292.883 42.9386 292.444 41.8699 292.447 40.7568C292.451 39.6437 292.896 38.5774 293.685 37.7926L297.511 33.9878L314.422 50.9939L307.619 57.7579Z" fill="#0296E5"/>
<path d="M304.274 40.7859L293.706 30.1571C292.921 29.3678 292.482 28.299 292.485 27.186C292.488 26.0729 292.933 25.0066 293.722 24.2218L297.549 20.417L308.118 31.0458C308.902 31.8351 309.342 32.9038 309.338 34.0169C309.335 35.13 308.89 36.1963 308.101 36.9811L304.274 40.7859Z" fill="#0276B4"/>
<path d="M304.312 27.2147L287.401 10.2087L294.204 3.4446L308.155 17.4746C308.94 18.2639 309.379 19.3327 309.376 20.4458C309.372 21.5588 308.927 22.6251 308.138 23.4099L304.312 27.2147Z" fill="#0296E5"/>
<path d="M333.459 85.9744C336.511 85.9744 338.985 83.4999 338.985 80.4475C338.985 77.395 336.511 74.9205 333.459 74.9205C330.406 74.9205 327.932 77.395 327.932 80.4475C327.932 83.4999 330.406 85.9744 333.459 85.9744Z" fill="#E82F3E"/>
<path d="M389.034 97.0282L402.157 107.621L395.095 116.37L381.972 105.777L389.034 97.0282Z" fill="#029532"/>
<path d="M354.952 78.2177L365.545 65.0945L374.294 72.1565L363.701 85.2796L354.952 78.2177Z" fill="#02A437"/>
<defs>
<filter id="filter0_d_3853_5037" x="5.69727" y="51.5071" width="229.805" height="254.886" filterUnits="userSpaceOnUse" color-interpolation-filters="sRGB">
<feFlood flood-opacity="0" result="BackgroundImageFix"/>
<feColorMatrix in="SourceAlpha" type="matrix" values="0 0 0 0 0 0 0 0 0 0 0 0 0 0 0 0 0 0 127 0" result="hardAlpha"/>
<feOffset dy="2"/>
<feGaussianBlur stdDeviation="7.5"/>
<feColorMatrix type="matrix" values="0 0 0 0 0 0 0 0 0 0 0 0 0 0 0 0 0 0 0.08 0"/>
<feBlend mode="normal" in2="BackgroundImageFix" result="effect1_dropShadow_3853_5037"/>
<feBlend mode="normal" in="SourceGraphic" in2="effect1_dropShadow_3853_5037" result="shape"/>
</filter>
<filter id="filter1_d_3853_5037" x="237.196" y="65.9509" width="221.974" height="249.938" filterUnits="userSpaceOnUse" color-interpolation-filters="sRGB">
<feFlood flood-opacity="0" result="BackgroundImageFix"/>
<feColorMatrix in="SourceAlpha" type="matrix" values="0 0 0 0 0 0 0 0 0 0 0 0 0 0 0 0 0 0 127 0" result="hardAlpha"/>
<feOffset dy="2"/>
<feGaussianBlur stdDeviation="7.5"/>
<feColorMatrix type="matrix" values="0 0 0 0 0 0 0 0 0 0 0 0 0 0 0 0 0 0 0.08 0"/>
<feBlend mode="normal" in2="BackgroundImageFix" result="effect1_dropShadow_3853_5037"/>
<feBlend mode="normal" in="SourceGraphic" in2="effect1_dropShadow_3853_5037" result="shape"/>
</filter>
<filter id="filter2_d_3853_5037" x="132.815" y="4.625" width="199.837" height="234.524" filterUnits="userSpaceOnUse" color-interpolation-filters="sRGB">
<feFlood flood-opacity="0" result="BackgroundImageFix"/>
<feColorMatrix in="SourceAlpha" type="matrix" values="0 0 0 0 0 0 0 0 0 0 0 0 0 0 0 0 0 0 127 0" result="hardAlpha"/>
<feOffset dy="2"/>
<feGaussianBlur stdDeviation="7.5"/>
<feColorMatrix type="matrix" values="0 0 0 0 0 0 0 0 0 0 0 0 0 0 0 0 0 0 0.08 0"/>
<feBlend mode="normal" in2="BackgroundImageFix" result="effect1_dropShadow_3853_5037"/>
<feBlend mode="normal" in="SourceGraphic" in2="effect1_dropShadow_3853_5037" result="shape"/>
</filter>
</defs>
</svg>
