<svg width="23" height="22" viewBox="0 0 23 22" fill="none" xmlns="http://www.w3.org/2000/svg">
<path id="Vector" d="M9.77183 18.8165C11.8125 18.8161 13.7944 18.1173 15.4019 16.8313L20.456 22.0012L22.0817 20.3383L17.0276 15.1684C18.2854 13.524 18.969 11.4962 18.9694 9.40824C18.9694 4.22077 14.8432 0 9.77183 0C4.7005 0 0.574219 4.22077 0.574219 9.40824C0.574219 14.5957 4.7005 18.8165 9.77183 18.8165ZM9.77183 2.35206C13.5762 2.35206 16.67 5.51676 16.67 9.40824C16.67 13.2997 13.5762 16.4644 9.77183 16.4644C5.96747 16.4644 2.87362 13.2997 2.87362 9.40824C2.87362 5.51676 5.96747 2.35206 9.77183 2.35206Z" fill="#BDBDBD"/>
</svg>
